<svg width="300" height="300" viewBox="0 0 300 300" fill="none" xmlns="http://www.w3.org/2000/svg">
<rect width="300" height="300" rx="79" fill="#000AFF"/>
<path d="M38.75 193C36.6667 193 35.625 191.854 35.625 189.562V106.812C35.625 104.521 36.6667 103.375 38.75 103.375H63.125C77.2917 103.375 86.8333 105.667 91.75 110.25C96.6667 114.833 99.125 120.354 99.125 126.812C99.125 131.938 97.0833 136.292 93 139.875C88.9167 143.417 84.9583 145.5 81.125 146.125V146.312C85.3333 146.688 90.0208 148.792 95.1875 152.625C100.396 156.417 103 161.583 103 168.125C103 175.208 100.375 181.125 95.125 185.875C89.9167 190.625 80.2917 193 66.25 193H38.75ZM47.625 182.75H64.25C73.2083 182.75 79.7708 181.646 83.9375 179.438C88.1042 177.229 90.1875 173.333 90.1875 167.75C90.1875 162.583 88.0625 158.583 83.8125 155.75C79.6042 152.917 73.0833 151.5 64.25 151.5H47.625V182.75ZM47.625 142.5H63.3125C70.2708 142.5 75.9375 141.021 80.3125 138.062C84.7292 135.062 86.9375 131.312 86.9375 126.812C86.9375 122.521 85.2917 119.25 82 117C78.7083 114.75 72.4792 113.625 63.3125 113.625H47.625V142.5ZM111.188 217.375C109.312 217.375 108.375 216.646 108.375 215.188V211.438C108.375 209.979 109.312 209.25 111.188 209.25H177.312C179.188 209.25 180.125 209.979 180.125 211.438V215.188C180.125 216.646 179.188 217.375 177.312 217.375H111.188ZM183.938 191.188C182.021 190.146 181.438 188.792 182.188 187.125L184.25 182.688C185.167 180.688 186.688 180.396 188.812 181.812C192.188 184.021 195.562 185.125 198.938 185.125C202.979 185.125 205.604 183.771 206.812 181.062C208.021 178.312 208.625 174.417 208.625 169.375V106.812C208.625 104.521 209.667 103.375 211.75 103.375H217.5C219.583 103.375 220.625 104.521 220.625 106.812V167.938C220.625 176.188 219.333 182.75 216.75 187.625C214.167 192.458 208.125 194.875 198.625 194.875C193.417 194.875 188.521 193.646 183.938 191.188ZM243.875 193C241.792 193 240.75 191.854 240.75 189.562V106.812C240.75 104.521 241.792 103.375 243.875 103.375H249.625C251.708 103.375 252.75 104.521 252.75 106.812V189.562C252.75 191.854 251.708 193 249.625 193H243.875Z" fill="white"/>
</svg>
